<svg width="1920" height="1080" viewBox="0 0 1920 1080" fill="none" xmlns="http://www.w3.org/2000/svg">
<path d="M30 0H35V1080H30V0Z" fill="#E7DCF0"/>
<path d="M79 0H84V1080H79V0Z" fill="#E7DCF0"/>
<path d="M128 0H133V1080H128V0Z" fill="#E7DCF0"/>
<path d="M177 0H182V1080H177V0Z" fill="#E7DCF0"/>
<path d="M226 0H231V1080H226V0Z" fill="#E7DCF0"/>
<path d="M275 0H280V1080H275V0Z" fill="#E7DCF0"/>
<path d="M324 0H329V1080H324V0Z" fill="#E7DCF0"/>
<path d="M373 0H378V1080H373V0Z" fill="#E7DCF0"/>
<path d="M422 0H427V1080H422V0Z" fill="#E7DCF0"/>
<path d="M471 0H476V1080H471V0Z" fill="#E7DCF0"/>
<path d="M520 0H525V1080H520V0Z" fill="#E7DCF0"/>
<path d="M569 0H574V1080H569V0Z" fill="#E7DCF0"/>
<path d="M618 0H623V1080H618V0Z" fill="#E7DCF0"/>
<path d="M667 0H672V1080H667V0Z" fill="#E7DCF0"/>
<path d="M716 0H721V1080H716V0Z" fill="#E7DCF0"/>
<path d="M765 0H770V1080H765V0Z" fill="#E7DCF0"/>
<path d="M814 0H819V1080H814V0Z" fill="#E7DCF0"/>
<path d="M863 0H868V1080H863V0Z" fill="#E7DCF0"/>
<path d="M912 0H917V1080H912V0Z" fill="#E7DCF0"/>
<path d="M961 0H966V1080H961V0Z" fill="#E7DCF0"/>
<path d="M1010 0H1015V1080H1010V0Z" fill="#E7DCF0"/>
<path d="M1059 0H1064V1080H1059V0Z" fill="#E7DCF0"/>
<path d="M1108 0H1113V1080H1108V0Z" fill="#E7DCF0"/>
<path d="M1157 0H1162V1080H1157V0Z" fill="#E7DCF0"/>
<path d="M1206 0H1211V1080H1206V0Z" fill="#E7DCF0"/>
<path d="M1255 0H1260V1080H1255V0Z" fill="#E7DCF0"/>
<path d="M1304 0H1309V1080H1304V0Z" fill="#E7DCF0"/>
<path d="M1353 0H1358V1080H1353V0Z" fill="#E7DCF0"/>
<path d="M1402 0H1407V1080H1402V0Z" fill="#E7DCF0"/>
<path d="M1451 0H1456V1080H1451V0Z" fill="#E7DCF0"/>
<path d="M1500 0H1505V1080H1500V0Z" fill="#E7DCF0"/>
<path d="M1549 0H1554V1080H1549V0Z" fill="#E7DCF0"/>
<path d="M1598 0H1603V1080H1598V0Z" fill="#E7DCF0"/>
<path d="M1647 0H1652V1080H1647V0Z" fill="#E7DCF0"/>
<path d="M1696 0H1701V1080H1696V0Z" fill="#E7DCF0"/>
<path d="M1745 0H1750V1080H1745V0Z" fill="#E7DCF0"/>
<path d="M1794 0H1799V1080H1794V0Z" fill="#E7DCF0"/>
<path d="M1843 0H1848V1080H1843V0Z" fill="#E7DCF0"/>
<path d="M1892 0H1897V1080H1892V0Z" fill="#E7DCF0"/>
<path d="M0 33L5.96247e-08 28L1920 28V33L0 33Z" fill="#E7DCF0"/>
<path d="M0 90L5.96247e-08 85L1920 85V90L0 90Z" fill="#E7DCF0"/>
<path d="M0 147L5.96247e-08 142L1920 142V147L0 147Z" fill="#E7DCF0"/>
<path d="M0 204L5.96247e-08 199L1920 199V204L0 204Z" fill="#E7DCF0"/>
<path d="M0 261L5.96247e-08 256L1920 256V261L0 261Z" fill="#E7DCF0"/>
<path d="M0 318L5.96247e-08 313L1920 313V318L0 318Z" fill="#E7DCF0"/>
<path d="M0 375L5.96247e-08 370L1920 370V375L0 375Z" fill="#E7DCF0"/>
<path d="M0 432L5.96247e-08 427L1920 427V432L0 432Z" fill="#E7DCF0"/>
<path d="M0 489L5.96247e-08 484L1920 484V489L0 489Z" fill="#E7DCF0"/>
<path d="M0 546L5.96247e-08 541L1920 541V546L0 546Z" fill="#E7DCF0"/>
<path d="M0 603L5.96247e-08 598L1920 598V603L0 603Z" fill="#E7DCF0"/>
<path d="M0 660L5.96247e-08 655L1920 655V660L0 660Z" fill="#E7DCF0"/>
<path d="M0 717L5.96247e-08 712L1920 712V717L0 717Z" fill="#E7DCF0"/>
<path d="M0 774L5.96247e-08 769L1920 769V774L0 774Z" fill="#E7DCF0"/>
<path d="M0 831L5.96247e-08 826L1920 826V831L0 831Z" fill="#E7DCF0"/>
<path d="M0 888L5.96247e-08 883L1920 883V888L0 888Z" fill="#E7DCF0"/>
<path d="M0 945L5.96247e-08 940L1920 940V945L0 945Z" fill="#E7DCF0"/>
<path d="M0 1002L5.96247e-08 997L1920 997V1002L0 1002Z" fill="#E7DCF0"/>
<path d="M0 1059L5.96247e-08 1054H1920V1059H0Z" fill="#E7DCF0"/>
</svg>
